{"title":"A Hijacking [2012] LIMITED BRRip XviD - CODY","uid":9240068,"size":1075179307,"categoryP":"video","categoryS":"movies","magnet":"?xt=urn:btih:437d90a39b9f8400e55e38d66b8ff98b6efbfa69&amp;dn=A+Hijacking+%5B2012%5D+LIMITED+BRRip+XviD+-+CODY&amp;tr=udp%3A%2F%2Ftracker.openbittorrent.com%3A80&amp;tr=udp%3A%2F%2Fopen.demonii.com%3A1337&amp;tr=udp%3A%2F%2Ftracker.coppersurfer.tk%3A6969&amp;tr=udp%3A%2F%2Fexodus.desync.com%3A6969","seeders":1,"leechers":0,"uploader":"CODYBOSS1969","files":6,"time":1385247881,"description":"General\nComplete name                            : A Hijacking [2012] LIMITED BRRip XviD - CODY.avi\nFormat                                   : AVI\nFormat/Info                              : Audio Video Interleave\nFile size                                : 1.00 GiB\nDuration                                 : 1h 43mn\nOverall bit rate                         : 1 386 Kbps\nWriting application                      : VirtualDubMod 1.5.10.3 | www.virtualdub-fr.org || (build 2550/release)\nWriting library                          : VirtualDubMod build 2550/release\n\nVideo\nID                                       : 0\nFormat                                   : MPEG-4 Visual\nFormat profile                           : Advanced Simple@L5\nFormat settings, BVOP                    : 4\nFormat settings, QPel                    : No\nFormat settings, GMC                     : No warppoints\nFormat settings, Matrix                  : Default (H.263)\nCodec ID                                 : XVID\nCodec ID/Hint                            : XviD\nDuration                                 : 1h 43mn\nBit rate                                 : 1 249 Kbps\nWidth                                    : 720 pixels\nHeight                                   : 408 pixels\nDisplay aspect ratio                     : 16:9\nFrame rate                               : 23.976 fps\nColor space                              : YUV\nChroma subsampling                       : 4:2:0\nBit depth                                : 8 bits\nScan type                                : Progressive\nCompression mode                         : Lossy\nBits/(Pixel*Frame)                       : 0.177\nStream size                              : 923 MiB (90%)\nWriting library                          : XviD 73\n\nAudio\nID                                       : 1\nFormat                                   : MPEG Audio\nFormat version                           : Version 1\nFormat profile                           : Layer 3\nCodec ID                                 : 55\nCodec ID/Hint                            : MP3\nDuration                                 : 1h 43mn\nBit rate mode                            : Constant\nBit rate                                 : 128 Kbps\nChannel(s)                               : 2 channels\nSampling rate                            : 48.0 KHz\nCompression mode                         : Lossy\nStream size                              : 94.6 MiB (9%)\nAlignment                                : Aligned on interleaves\nInterleave, duration                     : 42 ms (1.00 video frame)\nInterleave, preload duration             : 504 ms\nWriting library                          : LAME3.99r\nEncoding settings                        : -m s -V 4 -q 2 -lowpass 17 -b 128\n\nAudio language                           : Danish\n\nIMDB link:                                &lt;a href=&quot; http://www.imdb.com/title/tt2216240/&quot; rel=&quot;nofollow&quot; target=&quot;_NEW&quot;&gt; http://www.imdb.com/title/tt2216240/&lt;/a&gt;\n\nSubtitles included                       : English, Romanian\n\nPlease seed at least 1,5:1. This way this torrent has a chance to survive !\n\nThanks. Enjoy !!\t\t\t\t\t\n\n\t\t","torrent":{"xt":"urn:btih:437d90a39b9f8400e55e38d66b8ff98b6efbfa69","amp;dn":"A+Hijacking+%5B2012%5D+LIMITED+BRRip+XviD+-+CODY","amp;tr":["udp%3A%2F%2Ftracker.openbittorrent.com%3A80","udp%3A%2F%2Fopen.demonii.com%3A1337","udp%3A%2F%2Ftracker.coppersurfer.tk%3A6969","udp%3A%2F%2Fexodus.desync.com%3A6969"],"infoHash":"437d90a39b9f8400e55e38d66b8ff98b6efbfa69","infoHashBuffer":{"type":"Buffer","data":[67,125,144,163,155,159,132,0,229,94,56,214,107,143,249,139,110,251,250,105]},"announce":[],"urlList":[]}}